<svg width="26" height="26" viewBox="0 0 26 26" fill="none" xmlns="http://www.w3.org/2000/svg">
<circle cx="13" cy="13" r="13" fill="#D8F3FF"/>
<path d="M12.6667 14.6667C10.4575 14.6667 8.66667 12.8758 8.66667 10.6667V6.96296C8.66667 6.68707 8.66667 6.54911 8.70687 6.43865C8.77427 6.25347 8.92014 6.10761 9.10532 6.04021C9.21578 6 9.35373 6 9.62963 6H15.7037C15.9796 6 16.1175 6 16.228 6.04021C16.4132 6.10761 16.5591 6.25347 16.6265 6.43865C16.6667 6.54911 16.6667 6.68707 16.6667 6.96296V10.6667C16.6667 12.8758 14.8758 14.6667 12.6667 14.6667ZM12.6667 14.6667V16.6667M16.6667 7.33333H18.3333C18.6439 7.33333 18.7993 7.33333 18.9218 7.38408C19.0851 7.45174 19.2149 7.58153 19.2826 7.74488C19.3333 7.86739 19.3333 8.02271 19.3333 8.33333V8.66667C19.3333 9.28665 19.3333 9.59664 19.2652 9.85097C19.0803 10.5412 18.5411 11.0803 17.851 11.2652C17.5967 11.3333 17.2867 11.3333 16.6667 11.3333M8.66667 7.33333H7C6.68937 7.33333 6.53406 7.33333 6.41155 7.38408C6.24819 7.45174 6.11841 7.58153 6.05075 7.74488C6 7.86739 6 8.02271 6 8.33333V8.66667C6 9.28665 6 9.59664 6.06815 9.85097C6.25308 10.5412 6.79218 11.0803 7.48236 11.2652C7.73669 11.3333 8.04669 11.3333 8.66667 11.3333M9.62963 19.3333H15.7037C15.8673 19.3333 16 19.2007 16 19.0371C16 17.7279 14.9387 16.6667 13.6296 16.6667H11.7037C10.3946 16.6667 9.33333 17.7279 9.33333 19.0371C9.33333 19.2007 9.46599 19.3333 9.62963 19.3333Z" stroke="black" stroke-linecap="round" stroke-linejoin="round"/>
</svg>
