<svg width="16" height="16" viewBox="0 0 16 16" fill="none" xmlns="http://www.w3.org/2000/svg">
<path opacity="0.1" d="M14 8C14 11.3137 11.3137 14 8 14C4.68629 14 2 11.3137 2 8C2 4.68629 4.68629 2 8 2C11.3137 2 14 4.68629 14 8Z" fill="#514D55"/>
<path d="M14 8C14 11.3137 11.3137 14 8 14C4.68629 14 2 11.3137 2 8C2 4.68629 4.68629 2 8 2C11.3137 2 14 4.68629 14 8Z" stroke="#514D55"/>
<path d="M6 8.00002L7.12187 9.12189C7.23867 9.23869 7.428 9.23869 7.5448 9.12189L10 6.66669" stroke="#514D55" stroke-linecap="round" stroke-linejoin="round"/>
</svg>
