<svg width="15" height="15" viewBox="0 0 15 15" fill="none" xmlns="http://www.w3.org/2000/svg">
<path d="M7.66667 9.66667C5.45753 9.66667 3.66667 7.8758 3.66667 5.66667V1.96296C3.66667 1.68707 3.66667 1.54911 3.70687 1.43865C3.77427 1.25347 3.92014 1.10761 4.10532 1.04021C4.21578 1 4.35373 1 4.62963 1H10.7037C10.9796 1 11.1175 1 11.228 1.04021C11.4132 1.10761 11.5591 1.25347 11.6265 1.43865C11.6667 1.54911 11.6667 1.68707 11.6667 1.96296V5.66667C11.6667 7.8758 9.8758 9.66667 7.66667 9.66667ZM7.66667 9.66667V11.6667M11.6667 2.33333H13.3333C13.6439 2.33333 13.7993 2.33333 13.9218 2.38408C14.0851 2.45174 14.2149 2.58153 14.2826 2.74488C14.3333 2.86739 14.3333 3.02271 14.3333 3.33333V3.66667C14.3333 4.28665 14.3333 4.59664 14.2652 4.85097C14.0803 5.54115 13.5411 6.08025 12.851 6.26519C12.5967 6.33333 12.2867 6.33333 11.6667 6.33333M3.66667 2.33333H2C1.68937 2.33333 1.53406 2.33333 1.41155 2.38408C1.24819 2.45174 1.11841 2.58153 1.05075 2.74488C1 2.86739 1 3.02271 1 3.33333V3.66667C1 4.28665 1 4.59664 1.06815 4.85097C1.25308 5.54115 1.79218 6.08025 2.48236 6.26519C2.73669 6.33333 3.04669 6.33333 3.66667 6.33333M4.62963 14.3333H10.7037C10.8673 14.3333 11 14.2007 11 14.0371C11 12.7279 9.93873 11.6667 8.6296 11.6667H6.70373C5.39459 11.6667 4.33333 12.7279 4.33333 14.0371C4.33333 14.2007 4.46599 14.3333 4.62963 14.3333Z" stroke="black" stroke-linecap="round" stroke-linejoin="round"/>
</svg>
