<svg width="26" height="26" viewBox="0 0 26 26" fill="none" xmlns="http://www.w3.org/2000/svg">
<circle cx="13" cy="13" r="13" fill="#D8F3FF"/>
<path d="M10.9994 19.4869V17.9869" stroke="black" stroke-miterlimit="10" stroke-linecap="square"/>
<path d="M7.8175 18.1687L8.87813 17.1081" stroke="black" stroke-miterlimit="10" stroke-linecap="square"/>
<path d="M6.49937 14.9869H7.99937" stroke="black" stroke-miterlimit="10" stroke-linecap="square"/>
<path d="M18.1937 7.80689C17.776 7.38858 17.2799 7.0567 16.7338 6.83019C16.1878 6.60368 15.6024 6.48699 15.0112 6.48679C14.42 6.48658 13.8346 6.60287 13.2884 6.829C12.7422 7.05514 12.2459 7.38668 11.8278 7.8047L9.70656 9.92595L11.8278 12.0475L13.9491 9.92595C14.0899 9.78513 14.2573 9.67377 14.4417 9.59836C14.626 9.52294 14.8235 9.48498 15.0226 9.4867C15.2218 9.48842 15.4186 9.52977 15.6016 9.60835C15.7845 9.68693 15.9501 9.80117 16.0884 9.94439C16.6603 10.5356 16.6347 11.4831 16.0528 12.065L13.9491 14.1688L16.0703 16.29L18.1612 14.1991C19.9228 12.4375 19.9541 9.56939 18.1937 7.80689Z" fill="black"/>
<path d="M8.99916 10.6332L7.58495 12.0474L9.70627 14.1687L11.1205 12.7545L8.99916 10.6332Z" fill="black"/>
<path d="M13.242 14.8755L11.8278 16.2897L13.9491 18.411L15.3633 16.9968L13.242 14.8755Z" fill="black"/>
</svg>
