<svg width="16" height="16" viewBox="0 0 16 16" fill="none" xmlns="http://www.w3.org/2000/svg">
<path d="M5.99937 14.4869V12.9869" stroke="black" stroke-miterlimit="10" stroke-linecap="square"/>
<path d="M2.8175 13.1687L3.87813 12.1081" stroke="black" stroke-miterlimit="10" stroke-linecap="square"/>
<path d="M1.49937 9.98688H2.99937" stroke="black" stroke-miterlimit="10" stroke-linecap="square"/>
<path d="M13.1937 2.80689C12.776 2.38858 12.2799 2.0567 11.7338 1.83019C11.1878 1.60368 10.6024 1.48699 10.0112 1.48679C9.42005 1.48658 8.83462 1.60287 8.28839 1.829C7.74217 2.05514 7.24585 2.38668 6.82781 2.8047L4.70656 4.92595L6.82781 7.04751L8.94906 4.92595C9.08988 4.78513 9.25734 4.67377 9.44166 4.59836C9.62598 4.52294 9.82347 4.48498 10.0226 4.4867C10.2218 4.48842 10.4186 4.52977 10.6016 4.60835C10.7845 4.68693 10.9501 4.80117 11.0884 4.94439C11.6603 5.53564 11.6347 6.48314 11.0528 7.06501L8.94906 9.16876L11.0703 11.29L13.1612 9.19908C14.9228 7.43751 14.9541 4.56939 13.1937 2.80689Z" fill="black"/>
<path d="M3.99916 5.63321L2.58495 7.04742L4.70627 9.16874L6.12048 7.75453L3.99916 5.63321Z" fill="black"/>
<path d="M8.242 9.87549L6.82779 11.2897L8.94911 13.411L10.3633 11.9968L8.242 9.87549Z" fill="black"/>
</svg>
