<svg width="26" height="26" viewBox="0 0 26 26" fill="none" xmlns="http://www.w3.org/2000/svg">
<circle cx="13" cy="13" r="13" fill="#D8F3FF"/>
<path d="M13.0001 17.6667C12.6319 17.6667 12.3335 17.9651 12.3335 18.3333C12.3335 18.7015 12.6319 19 13.0001 19V17.6667ZM13.0068 19C13.375 19 13.6735 18.7015 13.6735 18.3333C13.6735 17.9651 13.375 17.6667 13.0068 17.6667V19ZM14.7938 16.36C15.0662 16.6077 15.4878 16.5878 15.7355 16.3155C15.9833 16.0431 15.9633 15.6215 15.691 15.3737L14.7938 16.36ZM17.0361 13.8935C17.3084 14.1413 17.7301 14.1213 17.9778 13.8489C18.2256 13.5766 18.2056 13.1549 17.9333 12.9072L17.0361 13.8935ZM10.3093 15.3737C10.0369 15.6215 10.017 16.0431 10.2647 16.3155C10.5125 16.5878 10.9341 16.6077 11.2065 16.36L10.3093 15.3737ZM8.06705 12.9072C7.79468 13.1549 7.77473 13.5766 8.02247 13.8489C8.27023 14.1213 8.69187 14.1413 8.96423 13.8935L8.06705 12.9072ZM13.0001 19H13.0068V17.6667H13.0001V19ZM13.0001 15.6667C13.6913 15.6667 14.3197 15.9287 14.7938 16.36L15.691 15.3737C14.981 14.7279 14.0359 14.3333 13.0001 14.3333V15.6667ZM13.0001 12.3333C14.5547 12.3333 15.9699 12.9237 17.0361 13.8935L17.9333 12.9072C16.6312 11.7228 14.8993 11 13.0001 11V12.3333ZM11.2065 16.36C11.6806 15.9287 12.309 15.6667 13.0001 15.6667V14.3333C11.9644 14.3333 11.0193 14.7279 10.3093 15.3737L11.2065 16.36ZM8.96423 13.8935C10.0304 12.9237 11.4456 12.3333 13.0001 12.3333V11C11.101 11 9.36911 11.7228 8.06705 12.9072L8.96423 13.8935Z" fill="black"/>
</svg>
