<svg width="16" height="16" viewBox="0 0 16 16" fill="none" xmlns="http://www.w3.org/2000/svg">
<path d="M8.00015 12.6667C7.63195 12.6667 7.33348 12.9651 7.33348 13.3333C7.33348 13.7015 7.63195 14 8.00015 14V12.6667ZM8.00681 14C8.37501 14 8.67348 13.7015 8.67348 13.3333C8.67348 12.9651 8.37501 12.6667 8.00681 12.6667V14ZM9.79381 11.36C10.0662 11.6077 10.4878 11.5878 10.7355 11.3155C10.9833 11.0431 10.9633 10.6215 10.691 10.3737L9.79381 11.36ZM12.0361 8.89353C12.3084 9.14127 12.7301 9.12133 12.9778 8.84893C13.2256 8.5766 13.2056 8.15493 12.9333 7.9072L12.0361 8.89353ZM5.30931 10.3737C5.03694 10.6215 5.01699 11.0431 5.26473 11.3155C5.51249 11.5878 5.93413 11.6077 6.20649 11.36L5.30931 10.3737ZM3.06705 7.9072C2.79468 8.15493 2.77473 8.5766 3.02247 8.84893C3.27023 9.12133 3.69187 9.14127 3.96423 8.89353L3.06705 7.9072ZM8.00015 14H8.00681V12.6667H8.00015V14ZM8.00015 10.6667C8.69128 10.6667 9.31968 10.9287 9.79381 11.36L10.691 10.3737C9.98101 9.72787 9.03588 9.33333 8.00015 9.33333V10.6667ZM8.00015 7.33333C9.55475 7.33333 10.9699 7.92367 12.0361 8.89353L12.9333 7.9072C11.6312 6.7228 9.89928 6 8.00015 6V7.33333ZM6.20649 11.36C6.68061 10.9287 7.30901 10.6667 8.00015 10.6667V9.33333C6.96441 9.33333 6.0193 9.72787 5.30931 10.3737L6.20649 11.36ZM3.96423 8.89353C5.03045 7.92367 6.44559 7.33333 8.00015 7.33333V6C6.101 6 4.36911 6.7228 3.06705 7.9072L3.96423 8.89353Z" fill="black"/>
</svg>
